name rise38.3101peak57.3503fall81.6963.mot
datacolumns 19
datarows 17
range 22.98158500000000 23.00824800000000
endheader
time	ground_force1_vx	ground_force1_vy	ground_force1_vz	ground_force1_px	ground_force1_py	ground_force1_pz	ground_force2_vx	ground_force2_vy	ground_force2_vz	ground_force2_px	ground_force2_py	ground_force2_pz	ground_torque1_x	ground_torque1_y	ground_torque1_z	ground_torque2_x	ground_torque2_y	ground_torque2_z	
22.98158500000000	-62.62499000000000	771.68539699999997	62.91972600000000	0.12047700000000	0.00000000000000	0.12453600000000	-16.05786500000000	92.15652300000001	17.26063200000000	0.39126200000000	0.00000000000000	-0.05965100000000	0.00000000000000	30.14670600000000	0.00000000000000	0.00000000000000	12.01404700000000	0.00000000000000	
22.98324900000000	-62.32951900000000	767.23271599999998	62.21597800000000	0.12046700000000	0.00000000000000	0.12441900000000	-15.40142700000000	97.17500800000001	17.40019000000000	0.39472100000000	0.00000000000000	-0.05996300000000	0.00000000000000	29.88672600000000	0.00000000000000	0.00000000000000	12.31402900000000	0.00000000000000	
22.98492700000000	-62.03618500000000	762.64721299999997	61.48153300000000	0.12048600000000	0.00000000000000	0.12429500000000	-14.62000900000000	102.16954200000001	17.45575800000000	0.39804900000000	0.00000000000000	-0.06026800000000	0.00000000000000	29.62408200000000	0.00000000000000	0.00000000000000	12.56252300000000	0.00000000000000	
22.98657900000000	-61.74604700000000	757.93161699999996	60.71729900000000	0.12053400000000	0.00000000000000	0.12416400000000	-13.74128800000000	107.19618300000000	17.44444200000000	0.40124600000000	0.00000000000000	-0.06056800000000	0.00000000000000	29.35906800000000	0.00000000000000	0.00000000000000	12.76852700000000	0.00000000000000	
22.98825500000000	-61.46013800000000	753.08877099999995	59.92424300000000	0.12061000000000	0.00000000000000	0.12402600000000	-12.78945300000000	112.30595300000000	17.38136200000000	0.40431300000000	0.00000000000000	-0.06086300000000	0.00000000000000	29.09196600000000	0.00000000000000	0.00000000000000	12.94019600000000	0.00000000000000	
22.98992000000000	-61.17946400000000	748.12162300000000	59.10338700000000	0.12071300000000	0.00000000000000	0.12388100000000	-11.78427800000000	117.54215200000000	17.27892000000000	0.40725100000000	0.00000000000000	-0.06115400000000	0.00000000000000	28.82304600000000	0.00000000000000	0.00000000000000	13.08433300000000	0.00000000000000	
22.99158400000000	-60.90499600000000	743.03321000000005	58.25580600000000	0.12084200000000	0.00000000000000	0.12372800000000	-10.74068400000000	122.93868600000000	17.14640900000000	0.41006000000000	0.00000000000000	-0.06144300000000	0.00000000000000	28.55256400000000	0.00000000000000	0.00000000000000	13.20606300000000	0.00000000000000	
22.99324700000000	-60.63766600000000	737.82665199999997	57.38262400000000	0.12099500000000	0.00000000000000	0.12356800000000	-9.66874000000000	128.51936200000000	16.98991400000000	0.41274200000000	0.00000000000000	-0.06173100000000	0.00000000000000	28.28076400000000	0.00000000000000	0.00000000000000	13.30870500000000	0.00000000000000	
22.99492300000000	-60.37836200000000	732.50513899999999	56.48501000000000	0.12117200000000	0.00000000000000	0.12340100000000	-8.57400800000000	134.29802599999999	16.81247600000000	0.41529600000000	0.00000000000000	-0.06201600000000	0.00000000000000	28.00787500000000	0.00000000000000	0.00000000000000	13.39379600000000	0.00000000000000	
22.99658100000000	-60.12792100000000	727.07191699999998	55.56417600000000	0.12137100000000	0.00000000000000	0.12322700000000	-7.45816600000000	140.27937200000000	16.61444600000000	0.41772500000000	0.00000000000000	-0.06230100000000	0.00000000000000	27.73411400000000	0.00000000000000	0.00000000000000	13.46125500000000	0.00000000000000	
22.99825200000000	-59.88712400000000	721.53028099999995	54.62137000000000	0.12159000000000	0.00000000000000	0.12304500000000	-6.31978500000000	146.46024700000001	16.39398000000000	0.42002800000000	0.00000000000000	-0.06258500000000	0.00000000000000	27.45968200000000	0.00000000000000	0.00000000000000	13.50964700000000	0.00000000000000	
22.99991700000000	-59.65669500000000	715.88356199999998	53.65787400000000	0.12182800000000	0.00000000000000	0.12285600000000	-5.15519900000000	152.83125899999999	16.14759900000000	0.42220800000000	0.00000000000000	-0.06286900000000	0.00000000000000	27.18476600000000	0.00000000000000	0.00000000000000	13.53650100000000	0.00000000000000	
23.00158400000000	-59.43728800000000	710.13511700000004	52.67500100000000	0.12208300000000	0.00000000000000	0.12266000000000	-3.95936800000000	159.37850200000000	15.87077400000000	0.42426600000000	0.00000000000000	-0.06315200000000	0.00000000000000	26.90954000000000	0.00000000000000	0.00000000000000	13.53865700000000	0.00000000000000	
23.00325100000000	-59.22949000000000	704.28831600000001	51.67408900000000	0.12235300000000	0.00000000000000	0.12245700000000	-2.72668000000000	166.08527100000001	15.55847800000000	0.42620300000000	0.00000000000000	-0.06343600000000	0.00000000000000	26.63416300000000	0.00000000000000	0.00000000000000	13.51261200000000	0.00000000000000	
23.00492400000000	-59.03381200000000	698.34653500000002	50.65649700000000	0.12263600000000	0.00000000000000	0.12224600000000	-1.45164200000000	172.93361300000001	15.20567600000000	0.42802200000000	0.00000000000000	-0.06372000000000	0.00000000000000	26.35878000000000	0.00000000000000	0.00000000000000	13.45482600000000	0.00000000000000	
23.00658700000000	-58.85068700000000	692.31314399999997	49.62360300000000	0.12293000000000	0.00000000000000	0.12202800000000	-0.12943100000000	179.90565900000001	14.80772900000000	0.42972300000000	0.00000000000000	-0.06400400000000	0.00000000000000	26.08351900000000	0.00000000000000	0.00000000000000	13.36199500000000	0.00000000000000	
23.00824800000000	-58.68046100000000	686.19150100000002	48.57679900000000	0.12323300000000	0.00000000000000	0.12180300000000	1.24371300000000	186.98466099999999	14.36069600000000	0.43130900000000	0.00000000000000	-0.06428800000000	0.00000000000000	25.80849800000000	0.00000000000000	0.00000000000000	13.23124700000000	0.00000000000000	
